<svg width="167" height="45" viewBox="0 0 167 45" fill="none" xmlns="http://www.w3.org/2000/svg">
<path d="M21.38 44.3554C21.3896 44.3642 21.3993 44.3641 21.409 44.3729C21.5639 44.4599 21.7382 44.5035 21.9125 44.5035H36.5729C37.1055 44.5035 37.5412 44.1116 37.5412 43.6326V43.502C37.5412 41.2988 35.837 39.4438 33.542 38.9475C34.462 37.6499 35.5562 35.5947 35.0333 33.6265C34.0165 29.7164 30.0077 28.7411 28.0323 28.7672C27.4997 28.7759 27.0737 29.1678 27.0834 29.6468C27.093 30.1257 27.5288 30.5176 28.0614 30.5089C28.2357 30.5002 32.2348 30.5263 33.1547 34.0271C33.6486 35.8995 31.7797 38.3379 31.0147 39.1129C30.763 39.3655 30.7049 39.7312 30.8598 40.0447C31.0147 40.3582 31.3633 40.5585 31.741 40.5585H32.3413C33.8616 40.5585 35.1398 41.4903 35.4981 42.7531H23.0261C23.0164 42.7531 23.0164 42.7531 23.0164 42.7531C22.9583 42.7531 22.6194 42.7444 22.1062 42.6921C19.7822 41.1942 19.5111 38.5207 19.5014 38.4424C18.659 33.0953 22.8712 29.3071 26.5895 25.9631C28.41 24.3259 30.1432 22.7757 31.189 21.1298C31.6926 20.3374 32.0508 19.3881 32.2735 18.256C33.2322 18.5695 34.2877 18.7437 35.4109 18.7437C35.5174 18.7437 35.6143 18.7437 35.7208 18.7437C37.6284 18.6914 38.6451 17.8554 39.1583 17.1587C41.3564 14.1978 38.9259 8.16285 38.6354 7.48358C38.4417 7.03074 37.8898 6.80432 37.3863 6.97849C36.8827 7.15266 36.631 7.64904 36.8246 8.10189C37.5025 9.71296 38.955 14.3024 37.5509 16.1921C37.1539 16.7233 36.5535 16.9759 35.6627 17.002C33.0288 17.0717 30.8211 16.0353 29.8915 14.2849C28.652 11.9336 29.8431 8.59827 33.1644 5.13228C33.1741 5.12357 33.1741 5.11487 33.1741 5.10616L33.1838 5.09745C34.0456 4.11339 35.5368 3.39929 38.006 2.7984C41.1337 2.04076 46.2658 5.51546 47.757 6.60402C48.4638 7.11782 49.316 7.38779 50.2262 7.38779H51.0589C52.1531 7.38779 53.044 8.18897 53.044 9.17303V9.66942C53.044 11.4198 52.0273 13.0657 50.4005 13.9714C48.5897 14.9642 46.4691 15.4606 44.0774 15.4606C43.5448 15.4606 43.109 15.8525 43.109 16.3314V19.2575C43.109 19.423 43.1671 19.5884 43.264 19.7365C43.293 19.7713 46.0624 23.6727 44.8811 27.7831C44.668 28.5059 44.426 29.2462 44.1839 29.9864C43.4867 32.1026 42.7701 34.2971 42.7701 36.1694C42.7701 38.1637 43.6126 39.6006 45.2587 40.4453C45.404 40.5237 45.5686 40.5585 45.7332 40.5585C47.2728 40.5585 48.5704 41.5165 48.919 42.7531H44.426C43.7578 42.7531 43.1381 42.3699 42.896 41.8126L40.6205 36.5265V30.1954C40.6205 29.7164 40.1847 29.3245 39.6521 29.3245C39.1196 29.3245 38.6838 29.7164 38.6838 30.1954V36.6919C38.6838 36.7964 38.7032 36.9097 38.7516 37.0055L41.0949 42.4396C41.6275 43.6762 42.9638 44.5035 44.426 44.5035H49.9938C50.4973 44.5035 50.9234 44.1551 50.9621 43.7023L50.9718 43.502C50.9718 41.0114 48.7834 38.9649 46.043 38.8342C45.1328 38.2943 44.7261 37.467 44.7261 36.1781C44.7261 34.5584 45.404 32.4857 46.0624 30.4915C46.3142 29.7338 46.5563 28.9762 46.779 28.236C48.0184 23.934 45.7138 20.0151 45.065 19.0224V17.1849C47.4277 17.063 49.558 16.4882 51.4269 15.4606C53.625 14.2414 55 12.0207 55 9.66942V9.18174C55 7.23974 53.2377 5.65479 51.0783 5.65479H50.2359C49.7711 5.65479 49.345 5.51546 48.9867 5.2542C46.3142 3.32091 41.2789 0.211971 37.5122 1.12636C34.6169 1.83175 32.8158 2.72873 31.6732 4.0263V4.03501C26.4443 9.51267 27.2189 13.2747 28.1485 15.0339C28.6617 16.0005 29.4654 16.8017 30.4434 17.42C30.2788 18.5956 29.9689 19.5449 29.5138 20.2677C28.5843 21.7046 26.9478 23.1763 25.2145 24.7352C21.38 28.1837 16.6061 32.477 17.5648 38.6252C17.5745 38.721 17.7197 40.2624 18.7364 41.8561C17.0322 41.1768 15.1827 39.9751 13.982 37.8502C11.232 33.017 14.776 28.5321 14.9406 28.3318C15.2602 27.9486 15.1633 27.4 14.7373 27.1126C14.3015 26.8252 13.7012 26.9123 13.3816 27.2955C13.1977 27.5219 8.94673 32.8254 12.2584 38.6427C14.6308 42.8227 19.0076 44.0158 21.38 44.3554Z" fill="#003459"/>
<path d="M42.315 8.37186C42.4312 8.32831 42.5377 8.25865 42.6249 8.18027C42.8089 8.01481 42.9057 7.79709 42.9057 7.56196C42.9057 7.33554 42.8089 7.10912 42.6249 6.95237C42.5377 6.86528 42.4312 6.80432 42.315 6.76078C41.9567 6.63015 41.521 6.70853 41.2596 6.95237C41.0756 7.10912 40.9691 7.33554 40.9691 7.56196C40.9691 7.79709 41.0756 8.01481 41.2596 8.18027C41.4338 8.34573 41.6856 8.43282 41.9374 8.43282C42.0729 8.43282 42.1891 8.4154 42.315 8.37186Z" fill="#003459"/>
<path d="M78.04 5.432V17H75.88V11.944H70.448V17H68.288V5.432H70.448V10.408H75.88V5.432H78.04ZM85.2721 15.264C85.6881 15.264 86.0588 15.1947 86.3841 15.056C86.7148 14.9173 86.9921 14.7227 87.2161 14.472C87.4401 14.2213 87.6108 13.9173 87.7281 13.56C87.8508 13.2027 87.9121 12.8027 87.9121 12.36V5.432H90.0641V12.36C90.0641 13.048 89.9521 13.6853 89.7281 14.272C89.5095 14.8533 89.1921 15.3573 88.7761 15.784C88.3655 16.2053 87.8641 16.536 87.2721 16.776C86.6801 17.0107 86.0135 17.128 85.2721 17.128C84.5255 17.128 83.8561 17.0107 83.2641 16.776C82.6721 16.536 82.1681 16.2053 81.7521 15.784C81.3415 15.3573 81.0241 14.8533 80.8001 14.272C80.5815 13.6853 80.4721 13.048 80.4721 12.36V5.432H82.6241V12.352C82.6241 12.7947 82.6828 13.1947 82.8001 13.552C82.9228 13.9093 83.0961 14.216 83.3201 14.472C83.5495 14.7227 83.8268 14.9173 84.1521 15.056C84.4828 15.1947 84.8561 15.264 85.2721 15.264ZM94.6511 7.144V10.352H98.6991V12.008H94.6511V15.28H99.7871V17H92.4911V5.432H99.7871V7.144H94.6511ZM108.47 15.224V17H101.694V5.432H103.846V15.224H108.47ZM116.783 15.224V17H110.007V5.432H112.159V15.224H116.783ZM124.431 12.632L123.023 8.784C122.954 8.61333 122.882 8.41067 122.807 8.176C122.733 7.94133 122.658 7.688 122.583 7.416C122.514 7.688 122.442 7.944 122.367 8.184C122.293 8.41867 122.221 8.624 122.151 8.8L120.751 12.632H124.431ZM128.231 17H126.567C126.381 17 126.229 16.9547 126.111 16.864C125.994 16.768 125.906 16.6507 125.847 16.512L124.983 14.152H120.191L119.327 16.512C119.285 16.6347 119.202 16.7467 119.079 16.848C118.957 16.9493 118.805 17 118.623 17H116.943L121.495 5.432H123.687L128.231 17ZM135.589 7.536C135.525 7.648 135.455 7.73067 135.381 7.784C135.311 7.832 135.223 7.856 135.117 7.856C135.005 7.856 134.882 7.816 134.749 7.736C134.621 7.65067 134.466 7.55733 134.285 7.456C134.103 7.35467 133.89 7.264 133.645 7.184C133.405 7.09867 133.119 7.056 132.789 7.056C132.49 7.056 132.229 7.09333 132.005 7.168C131.781 7.23733 131.591 7.336 131.437 7.464C131.287 7.592 131.175 7.74667 131.101 7.928C131.026 8.104 130.989 8.29867 130.989 8.512C130.989 8.784 131.063 9.01067 131.213 9.192C131.367 9.37333 131.57 9.528 131.821 9.656C132.071 9.784 132.357 9.89867 132.677 10C132.997 10.1013 133.325 10.2107 133.661 10.328C133.997 10.44 134.325 10.5733 134.645 10.728C134.965 10.8773 135.25 11.0693 135.501 11.304C135.751 11.5333 135.951 11.816 136.101 12.152C136.255 12.488 136.333 12.896 136.333 13.376C136.333 13.8987 136.242 14.3893 136.061 14.848C135.885 15.3013 135.623 15.6987 135.277 16.04C134.935 16.376 134.517 16.6427 134.021 16.84C133.525 17.032 132.957 17.128 132.317 17.128C131.949 17.128 131.586 17.0907 131.229 17.016C130.871 16.9467 130.527 16.8453 130.197 16.712C129.871 16.5787 129.565 16.4187 129.277 16.232C128.989 16.0453 128.733 15.8373 128.509 15.608L129.141 14.576C129.194 14.5013 129.263 14.44 129.349 14.392C129.434 14.3387 129.525 14.312 129.621 14.312C129.754 14.312 129.898 14.368 130.053 14.48C130.207 14.5867 130.391 14.7067 130.605 14.84C130.818 14.9733 131.066 15.096 131.349 15.208C131.637 15.3147 131.981 15.368 132.381 15.368C132.994 15.368 133.469 15.224 133.805 14.936C134.141 14.6427 134.309 14.224 134.309 13.68C134.309 13.376 134.231 13.128 134.077 12.936C133.927 12.744 133.727 12.584 133.477 12.456C133.226 12.3227 132.941 12.2107 132.621 12.12C132.301 12.0293 131.975 11.9307 131.645 11.824C131.314 11.7173 130.989 11.5893 130.669 11.44C130.349 11.2907 130.063 11.096 129.813 10.856C129.562 10.616 129.359 10.3173 129.205 9.96C129.055 9.59733 128.981 9.152 128.981 8.624C128.981 8.20267 129.063 7.792 129.229 7.392C129.399 6.992 129.645 6.63733 129.965 6.328C130.285 6.01867 130.679 5.77067 131.149 5.584C131.618 5.39733 132.157 5.304 132.765 5.304C133.447 5.304 134.077 5.41067 134.653 5.624C135.229 5.83733 135.719 6.136 136.125 6.52L135.589 7.536ZM152.373 11.216C152.373 12.064 152.231 12.8427 151.949 13.552C151.666 14.2613 151.269 14.872 150.757 15.384C150.245 15.896 149.629 16.2933 148.909 16.576C148.189 16.8587 147.389 17 146.509 17H142.101V5.432H146.509C147.389 5.432 148.189 5.576 148.909 5.864C149.629 6.14667 150.245 6.544 150.757 7.056C151.269 7.56267 151.666 8.17067 151.949 8.88C152.231 9.58933 152.373 10.368 152.373 11.216ZM150.165 11.216C150.165 10.5813 150.079 10.0133 149.909 9.512C149.743 9.00533 149.501 8.57867 149.181 8.232C148.866 7.88 148.482 7.61067 148.029 7.424C147.581 7.23733 147.074 7.144 146.509 7.144H144.261V15.288H146.509C147.074 15.288 147.581 15.1947 148.029 15.008C148.482 14.8213 148.866 14.5547 149.181 14.208C149.501 13.856 149.743 13.4293 149.909 12.928C150.079 12.4213 150.165 11.8507 150.165 11.216ZM156.432 7.144V10.352H160.48V12.008H156.432V15.28H161.568V17H154.272V5.432H161.568V7.144H156.432ZM70.448 26.144V29.352H74.496V31.008H70.448V34.28H75.584V36H68.288V24.432H75.584V26.144H70.448ZM83.6511 26.536C83.5871 26.648 83.5178 26.7307 83.4431 26.784C83.3738 26.832 83.2858 26.856 83.1791 26.856C83.0671 26.856 82.9445 26.816 82.8111 26.736C82.6831 26.6507 82.5285 26.5573 82.3471 26.456C82.1658 26.3547 81.9525 26.264 81.7071 26.184C81.4671 26.0987 81.1818 26.056 80.8511 26.056C80.5525 26.056 80.2911 26.0933 80.0671 26.168C79.8431 26.2373 79.6538 26.336 79.4991 26.464C79.3498 26.592 79.2378 26.7467 79.1631 26.928C79.0885 27.104 79.0511 27.2987 79.0511 27.512C79.0511 27.784 79.1258 28.0107 79.2751 28.192C79.4298 28.3733 79.6325 28.528 79.8831 28.656C80.1338 28.784 80.4191 28.8987 80.7391 29C81.0591 29.1013 81.3871 29.2107 81.7231 29.328C82.0591 29.44 82.3871 29.5733 82.7071 29.728C83.0271 29.8773 83.3125 30.0693 83.5631 30.304C83.8138 30.5333 84.0138 30.816 84.1631 31.152C84.3178 31.488 84.3951 31.896 84.3951 32.376C84.3951 32.8987 84.3045 33.3893 84.1231 33.848C83.9471 34.3013 83.6858 34.6987 83.3391 35.04C82.9978 35.376 82.5791 35.6427 82.0831 35.84C81.5871 36.032 81.0191 36.128 80.3791 36.128C80.0111 36.128 79.6485 36.0907 79.2911 36.016C78.9338 35.9467 78.5898 35.8453 78.2591 35.712C77.9338 35.5787 77.6271 35.4187 77.3391 35.232C77.0511 35.0453 76.7951 34.8373 76.5711 34.608L77.2031 33.576C77.2565 33.5013 77.3258 33.44 77.4111 33.392C77.4965 33.3387 77.5871 33.312 77.6831 33.312C77.8165 33.312 77.9605 33.368 78.1151 33.48C78.2698 33.5867 78.4538 33.7067 78.6671 33.84C78.8805 33.9733 79.1285 34.096 79.4111 34.208C79.6991 34.3147 80.0431 34.368 80.4431 34.368C81.0565 34.368 81.5311 34.224 81.8671 33.936C82.2031 33.6427 82.3711 33.224 82.3711 32.68C82.3711 32.376 82.2938 32.128 82.1391 31.936C81.9898 31.744 81.7898 31.584 81.5391 31.456C81.2885 31.3227 81.0031 31.2107 80.6831 31.12C80.3631 31.0293 80.0378 30.9307 79.7071 30.824C79.3765 30.7173 79.0511 30.5893 78.7311 30.44C78.4111 30.2907 78.1258 30.096 77.8751 29.856C77.6245 29.616 77.4218 29.3173 77.2671 28.96C77.1178 28.5973 77.0431 28.152 77.0431 27.624C77.0431 27.2027 77.1258 26.792 77.2911 26.392C77.4618 25.992 77.7071 25.6373 78.0271 25.328C78.3471 25.0187 78.7418 24.7707 79.2111 24.584C79.6805 24.3973 80.2191 24.304 80.8271 24.304C81.5098 24.304 82.1391 24.4107 82.7151 24.624C83.2911 24.8373 83.7818 25.136 84.1871 25.52L83.6511 26.536ZM90.0324 30.248C90.427 30.248 90.771 30.2 91.0644 30.104C91.3577 30.0027 91.6004 29.8613 91.7924 29.68C91.9897 29.4933 92.1364 29.2693 92.2324 29.008C92.3284 28.7413 92.3764 28.4453 92.3764 28.12C92.3764 27.8107 92.3284 27.5307 92.2324 27.28C92.1364 27.0293 91.9924 26.816 91.8004 26.64C91.6084 26.464 91.3657 26.3307 91.0724 26.24C90.779 26.144 90.4324 26.096 90.0324 26.096H88.4244V30.248H90.0324ZM90.0324 24.432C90.8057 24.432 91.475 24.5227 92.0404 24.704C92.6057 24.8853 93.0724 25.1387 93.4404 25.464C93.8084 25.7893 94.0804 26.1787 94.2564 26.632C94.4377 27.0853 94.5284 27.5813 94.5284 28.12C94.5284 28.68 94.435 29.1947 94.2484 29.664C94.0617 30.128 93.7817 30.528 93.4084 30.864C93.035 31.2 92.5657 31.4613 92.0004 31.648C91.4404 31.8347 90.7844 31.928 90.0324 31.928H88.4244V36H86.2724V24.432H90.0324ZM98.3386 26.144V29.352H102.387V31.008H98.3386V34.28H103.475V36H96.1786V24.432H103.475V26.144H98.3386ZM108.878 29.936C109.283 29.936 109.635 29.8853 109.934 29.784C110.238 29.6827 110.486 29.544 110.678 29.368C110.875 29.1867 111.022 28.9733 111.118 28.728C111.214 28.4827 111.262 28.2133 111.262 27.92C111.262 27.3333 111.067 26.8827 110.678 26.568C110.294 26.2533 109.704 26.096 108.91 26.096H107.534V29.936H108.878ZM114.414 36H112.47C112.102 36 111.835 35.856 111.67 35.568L109.238 31.864C109.147 31.7253 109.046 31.6267 108.934 31.568C108.827 31.5093 108.667 31.48 108.454 31.48H107.534V36H105.382V24.432H108.91C109.694 24.432 110.366 24.5147 110.926 24.68C111.491 24.84 111.952 25.0667 112.31 25.36C112.672 25.6533 112.939 26.0053 113.11 26.416C113.28 26.8213 113.366 27.2693 113.366 27.76C113.366 28.1493 113.307 28.5173 113.19 28.864C113.078 29.2107 112.912 29.5253 112.694 29.808C112.48 30.0907 112.214 30.3387 111.894 30.552C111.579 30.7653 111.219 30.9333 110.814 31.056C110.952 31.136 111.08 31.232 111.198 31.344C111.315 31.4507 111.422 31.5787 111.518 31.728L114.414 36ZM121.775 31.632L120.367 27.784C120.298 27.6133 120.226 27.4107 120.151 27.176C120.076 26.9413 120.002 26.688 119.927 26.416C119.858 26.688 119.786 26.944 119.711 27.184C119.636 27.4187 119.564 27.624 119.495 27.8L118.095 31.632H121.775ZM125.575 36H123.911C123.724 36 123.572 35.9547 123.455 35.864C123.338 35.768 123.25 35.6507 123.191 35.512L122.327 33.152H117.535L116.671 35.512C116.628 35.6347 116.546 35.7467 116.423 35.848C116.3 35.9493 116.148 36 115.967 36H114.287L118.839 24.432H121.031L125.575 36ZM136.524 24.432V36H135.42C135.25 36 135.106 35.9733 134.988 35.92C134.876 35.8613 134.767 35.7653 134.66 35.632L128.62 27.92C128.652 28.272 128.668 28.5973 128.668 28.896V36H126.772V24.432H127.9C127.991 24.432 128.068 24.4373 128.132 24.448C128.202 24.4533 128.26 24.4693 128.308 24.496C128.362 24.5173 128.412 24.552 128.46 24.6C128.508 24.6427 128.562 24.7013 128.62 24.776L134.684 32.52C134.668 32.3333 134.655 32.1493 134.644 31.968C134.634 31.7867 134.628 31.6187 134.628 31.464V24.432H136.524ZM147.069 25.224C147.069 25.4693 146.999 25.6933 146.861 25.896L140.925 34.28H146.933V36H138.133V35.152C138.133 35.0453 138.151 34.944 138.189 34.848C138.226 34.7467 138.274 34.6533 138.333 34.568L144.285 26.144H138.509V24.432H147.069V25.224ZM154.9 31.632L153.492 27.784C153.423 27.6133 153.351 27.4107 153.276 27.176C153.201 26.9413 153.127 26.688 153.052 26.416C152.983 26.688 152.911 26.944 152.836 27.184C152.761 27.4187 152.689 27.624 152.62 27.8L151.22 31.632H154.9ZM158.7 36H157.036C156.849 36 156.697 35.9547 156.58 35.864C156.463 35.768 156.375 35.6507 156.316 35.512L155.452 33.152H150.66L149.796 35.512C149.753 35.6347 149.671 35.7467 149.548 35.848C149.425 35.9493 149.273 36 149.092 36H147.412L151.964 24.432H154.156L158.7 36Z" fill="#103559"/>
</svg>
